# xmcd
#
# Track frame offsets:
# 150
# 5981
# 17823
# 37278
# 43520
# 63470
# 83420
# 103527
# 110753
# 122456
# 134047
# 156895
# 183615
# 203593
# 218830
# 236300
# 241435
# 246744
# 256026
# 271424
# 292015
#
# Disc length: 4246 seconds
#
# Revision: 0
# Processed by: cddbd v1.5.1PL0 Copyright (c) Steve Scherf et al.
# Submitted via: Audion 3.0.2 (http://www.panic.com/audion/)
#
DISCID=39109415
DTITLE=Awdrey and Seymour - Little Shop of Horrors
DYEAR=1900
DGENRE=
TTITLE0=a
TTITLE1=Little Shop of Horrors
TTITLE2=Skid Row (Down Town)
TTITLE3=d
TTITLE4=e
TTITLE5=f
TTITLE6=g
TTITLE7=h
TTITLE8=i
TTITLE9=j
TTITLE10=k
TTITLE11=l
TTITLE12=m
TTITLE13=n
TTITLE14=o
TTITLE15=p
TTITLE16=q
TTITLE17=r
TTITLE18=s
TTITLE19=t
TTITLE20=u
EXTD=
EXTT0=
EXTT1=
EXTT2=
EXTT3=
EXTT4=
EXTT5=
EXTT6=
EXTT7=
EXTT8=
EXTT9=
EXTT10=
EXTT11=
EXTT12=
EXTT13=
EXTT14=
EXTT15=
EXTT16=
EXTT17=
EXTT18=
EXTT19=
EXTT20=
PLAYORDER=
